<svg xmlns="http://www.w3.org/2000/svg" viewBox="0 0 680 80">
  <!-- Sichtbar ist nur der obere Streifen (48px) -->
  <defs>
    <clipPath id="topOnly"><rect x="0" y="0" width="680" height="48"></rect></clipPath>
  </defs>
  <g fill="none" stroke-linecap="round" stroke-linejoin="round" clip-path="url(#topOnly)" vector-effect="non-scaling-stroke">
    <!-- Top-Horizontale (Stroke-Mitten: 11 / 20.5 / 32.5 / 43.5) -->
    <path d="M 80 11 H 600" stroke="#2e39b3" stroke-width="6"></path>
    <path d="M 80 20.5 H 600" stroke="#646ad6" stroke-width="5"></path>
    <path d="M 80 32.5 H 600" stroke="#3746cc" stroke-width="5"></path>
    <path d="M 80 43.5 H 600" stroke="#05abf7" stroke-width="3"></path>

    <!-- Abgerundete Enden nach links (kurze Viertelbögen) -->
    <path d="M 80 11 A 69 69 0 0 0 11 80" stroke="#2e39b3" stroke-width="6"></path>
    <path d="M 80 20.5 A 59.5 59.5 0 0 0 20.5 80" stroke="#646ad6" stroke-width="5"></path>
    <path d="M 80 32.5 A 47.5 47.5 0 0 0 32.5 80" stroke="#3746cc" stroke-width="5"></path>
    <path d="M 80 43.5 A 36.5 36.5 0 0 0 43.5 80" stroke="#05abf7" stroke-width="3"></path>

    <!-- Abgerundete Enden nach rechts (gespiegelt) -->
    <path d="M 600 11 A 69 69 0 0 1 669 80" stroke="#2e39b3" stroke-width="6"></path>
    <path d="M 600 20.5 A 59.5 59.5 0 0 1 659.5 80" stroke="#646ad6" stroke-width="5"></path>
    <path d="M 600 32.5 A 47.5 47.5 0 0 1 647.5 80" stroke="#3746cc" stroke-width="5"></path>
    <path d="M 600 43.5 A 36.5 36.5 0 0 1 636.5 80" stroke="#05abf7" stroke-width="3"></path>
  </g>
</svg>
